<svg width="104" height="11" viewBox="0 0 104 11" fill="none" xmlns="http://www.w3.org/2000/svg">
<path d="M5.99854 7.66431C5.99854 7.44849 5.96468 7.25806 5.89697 7.09302C5.8335 6.92375 5.71924 6.7714 5.5542 6.63599C5.39339 6.50057 5.16911 6.3715 4.88135 6.24878C4.59782 6.12606 4.23812 6.00122 3.80225 5.87427C3.34521 5.73885 2.93262 5.58862 2.56445 5.42358C2.19629 5.25431 1.88102 5.06177 1.61865 4.84595C1.35628 4.63013 1.15527 4.38257 1.01562 4.10327C0.875977 3.82397 0.806152 3.50448 0.806152 3.14478C0.806152 2.78507 0.880208 2.45288 1.02832 2.14819C1.17643 1.84351 1.38802 1.57902 1.66309 1.35474C1.94238 1.12622 2.27458 0.948486 2.65967 0.821533C3.04476 0.69458 3.47428 0.631104 3.94824 0.631104C4.64225 0.631104 5.23047 0.764404 5.71289 1.03101C6.19954 1.29338 6.56982 1.63826 6.82373 2.06567C7.07764 2.48885 7.20459 2.94165 7.20459 3.42407H5.98584C5.98584 3.07707 5.91178 2.77026 5.76367 2.50366C5.61556 2.23283 5.39128 2.02124 5.09082 1.8689C4.79036 1.71232 4.40951 1.63403 3.94824 1.63403C3.51237 1.63403 3.15267 1.69963 2.86914 1.83081C2.58561 1.962 2.37402 2.13973 2.23438 2.36401C2.09896 2.5883 2.03125 2.84432 2.03125 3.13208C2.03125 3.32674 2.07145 3.50448 2.15186 3.66528C2.23649 3.82186 2.36556 3.96785 2.53906 4.10327C2.7168 4.23869 2.94108 4.36353 3.21191 4.47778C3.48698 4.59204 3.81494 4.70207 4.1958 4.80786C4.72054 4.95597 5.17334 5.12101 5.5542 5.30298C5.93506 5.48494 6.24821 5.69019 6.49365 5.9187C6.74333 6.14299 6.92741 6.39901 7.0459 6.68677C7.16862 6.9703 7.22998 7.29191 7.22998 7.65161C7.22998 8.02824 7.15381 8.3689 7.00146 8.67358C6.84912 8.97827 6.63118 9.23853 6.34766 9.45435C6.06413 9.67017 5.72347 9.83732 5.32568 9.95581C4.93213 10.0701 4.49202 10.1272 4.00537 10.1272C3.57796 10.1272 3.1569 10.068 2.74219 9.94946C2.33171 9.83097 1.95719 9.65324 1.61865 9.41626C1.28434 9.17928 1.01562 8.88729 0.8125 8.54028C0.613607 8.18905 0.51416 7.7828 0.51416 7.32153H1.73291C1.73291 7.63892 1.79427 7.91187 1.91699 8.14038C2.03971 8.36466 2.20687 8.55086 2.41846 8.69897C2.63428 8.84709 2.8776 8.95711 3.14844 9.02905C3.4235 9.09676 3.70915 9.13062 4.00537 9.13062C4.43278 9.13062 4.7946 9.07137 5.09082 8.95288C5.38704 8.83439 5.61133 8.66512 5.76367 8.44507C5.92025 8.22502 5.99854 7.96476 5.99854 7.66431ZM10.0166 0.758057V10.0002H8.7915V0.758057H10.0166ZM15.5962 0.758057L11.7559 5.06812L9.59766 7.30884L9.39453 6.00122L11.0195 4.21118L14.1235 0.758057H15.5962ZM14.4155 10.0002L10.9941 5.49341L11.7241 4.52222L15.8755 10.0002H14.4155ZM18.2686 0.758057V10.0002H17.0435V0.758057H18.2686ZM26.1016 9.00366V10.0002H21.4805V9.00366H26.1016ZM21.7217 0.758057V10.0002H20.4966V0.758057H21.7217ZM33.1094 9.00366V10.0002H28.4883V9.00366H33.1094ZM28.7295 0.758057V10.0002H27.5044V0.758057H28.7295ZM37.8066 5.67749H35.4644L35.4517 4.6936H37.5781C37.9294 4.6936 38.2362 4.63436 38.4985 4.51587C38.7609 4.39738 38.964 4.22811 39.1079 4.00806C39.256 3.78377 39.3301 3.51717 39.3301 3.20825C39.3301 2.86971 39.2645 2.59465 39.1333 2.38306C39.0063 2.16724 38.8096 2.01066 38.543 1.91333C38.2806 1.81177 37.9463 1.76099 37.54 1.76099H35.7373V10.0002H34.5122V0.758057H37.54C38.014 0.758057 38.4372 0.806722 38.8096 0.904053C39.182 0.997152 39.4972 1.14526 39.7554 1.34839C40.0177 1.54728 40.2166 1.80119 40.3521 2.11011C40.4875 2.41903 40.5552 2.78931 40.5552 3.22095C40.5552 3.60181 40.4578 3.9467 40.2632 4.25562C40.0685 4.5603 39.7977 4.80998 39.4507 5.00464C39.1079 5.1993 38.7059 5.32414 38.2446 5.37915L37.8066 5.67749ZM37.7495 10.0002H34.9819L35.6738 9.00366H37.7495C38.1388 9.00366 38.4689 8.93595 38.7397 8.80054C39.0148 8.66512 39.2243 8.47469 39.3682 8.22925C39.512 7.97957 39.584 7.68547 39.584 7.34692C39.584 7.00415 39.5226 6.70793 39.3999 6.45825C39.2772 6.20858 39.0846 6.01603 38.8223 5.88062C38.5599 5.7452 38.2214 5.67749 37.8066 5.67749H36.061L36.0737 4.6936H38.4604L38.7207 5.04907C39.165 5.08716 39.5417 5.21411 39.8506 5.42993C40.1595 5.64152 40.3944 5.91235 40.5552 6.24243C40.7202 6.57251 40.8027 6.93644 40.8027 7.33423C40.8027 7.90975 40.6758 8.3964 40.4219 8.79419C40.1722 9.18774 39.8188 9.4882 39.3618 9.69556C38.9048 9.89868 38.3674 10.0002 37.7495 10.0002ZM49.7275 5.08716V5.67114C49.7275 6.36515 49.6408 6.98722 49.4673 7.53735C49.2938 8.08748 49.0441 8.55509 48.7183 8.94019C48.3924 9.32528 48.001 9.61938 47.5439 9.82251C47.0911 10.0256 46.5833 10.1272 46.0205 10.1272C45.4746 10.1272 44.9731 10.0256 44.5161 9.82251C44.0633 9.61938 43.6698 9.32528 43.3354 8.94019C43.0054 8.55509 42.7493 8.08748 42.5674 7.53735C42.3854 6.98722 42.2944 6.36515 42.2944 5.67114V5.08716C42.2944 4.39315 42.3833 3.77319 42.561 3.22729C42.743 2.67716 42.999 2.20955 43.3291 1.82446C43.6592 1.43514 44.0506 1.13892 44.5034 0.935791C44.9604 0.732666 45.4619 0.631104 46.0078 0.631104C46.5706 0.631104 47.0785 0.732666 47.5312 0.935791C47.9883 1.13892 48.3797 1.43514 48.7056 1.82446C49.0356 2.20955 49.2874 2.67716 49.4609 3.22729C49.6387 3.77319 49.7275 4.39315 49.7275 5.08716ZM48.5151 5.67114V5.07446C48.5151 4.52433 48.458 4.03768 48.3438 3.6145C48.2337 3.19132 48.0708 2.83586 47.855 2.5481C47.6392 2.26034 47.3747 2.0424 47.0615 1.89429C46.7526 1.74618 46.4014 1.67212 46.0078 1.67212C45.627 1.67212 45.2821 1.74618 44.9731 1.89429C44.6685 2.0424 44.4061 2.26034 44.186 2.5481C43.9702 2.83586 43.8031 3.19132 43.6846 3.6145C43.5661 4.03768 43.5068 4.52433 43.5068 5.07446V5.67114C43.5068 6.2255 43.5661 6.71639 43.6846 7.1438C43.8031 7.56698 43.9723 7.92456 44.1924 8.21655C44.4167 8.50431 44.6812 8.72225 44.9858 8.87036C45.2948 9.01847 45.6396 9.09253 46.0205 9.09253C46.4183 9.09253 46.7716 9.01847 47.0806 8.87036C47.3895 8.72225 47.6497 8.50431 47.8613 8.21655C48.0771 7.92456 48.2401 7.56698 48.3501 7.1438C48.4601 6.71639 48.5151 6.2255 48.5151 5.67114ZM52.2158 0.758057L54.4375 4.30005L56.6592 0.758057H58.0874L55.1675 5.33472L58.1572 10.0002H56.7163L54.4375 6.38843L52.1587 10.0002H50.7178L53.7075 5.33472L50.7876 0.758057H52.2158ZM81.9927 9.0354V10.0002H75.9434V9.15601L78.9712 5.7854C79.3436 5.37069 79.6313 5.01945 79.8345 4.73169C80.0418 4.4397 80.1857 4.17944 80.2661 3.95093C80.3507 3.71818 80.3931 3.4812 80.3931 3.23999C80.3931 2.9353 80.3296 2.66024 80.2026 2.41479C80.0799 2.16512 79.8979 1.96623 79.6567 1.81812C79.4155 1.67 79.1235 1.59595 78.7808 1.59595C78.3703 1.59595 78.0275 1.67635 77.7524 1.83716C77.4816 1.99373 77.2785 2.21379 77.1431 2.49731C77.0076 2.78084 76.9399 3.10669 76.9399 3.47485H75.7656C75.7656 2.95435 75.8799 2.47827 76.1084 2.04663C76.3369 1.61499 76.6755 1.27222 77.124 1.01831C77.5726 0.760173 78.1248 0.631104 78.7808 0.631104C79.3647 0.631104 79.8641 0.734782 80.2788 0.942139C80.6935 1.14526 81.0109 1.43302 81.231 1.80542C81.4552 2.17358 81.5674 2.60522 81.5674 3.10034C81.5674 3.37118 81.5208 3.64624 81.4277 3.92554C81.3389 4.2006 81.214 4.47567 81.0532 4.75073C80.8966 5.0258 80.7126 5.29663 80.501 5.56323C80.2936 5.82983 80.0715 6.0922 79.8345 6.35034L77.3589 9.0354H81.9927ZM89.0513 4.64282V6.052C89.0513 6.80949 88.9836 7.44849 88.8481 7.96899C88.7127 8.4895 88.5181 8.90845 88.2642 9.22583C88.0103 9.54321 87.7035 9.77384 87.3438 9.91772C86.9883 10.0574 86.5863 10.1272 86.1377 10.1272C85.7822 10.1272 85.4543 10.0828 85.1538 9.9939C84.8534 9.90503 84.5825 9.76326 84.3413 9.5686C84.1043 9.36971 83.9012 9.11157 83.7319 8.79419C83.5627 8.47681 83.4336 8.09172 83.3447 7.63892C83.2559 7.18612 83.2114 6.65715 83.2114 6.052V4.64282C83.2114 3.88534 83.2791 3.25057 83.4146 2.73853C83.5542 2.22648 83.751 1.816 84.0049 1.50708C84.2588 1.19393 84.5635 0.969645 84.9189 0.834229C85.2786 0.698812 85.6807 0.631104 86.125 0.631104C86.4847 0.631104 86.8148 0.675537 87.1152 0.764404C87.4199 0.84904 87.6908 0.986572 87.9277 1.177C88.1647 1.3632 88.3657 1.61287 88.5308 1.92603C88.7 2.23494 88.8291 2.61369 88.918 3.06226C89.0068 3.51082 89.0513 4.03768 89.0513 4.64282ZM87.8706 6.24243V4.44604C87.8706 4.03133 87.8452 3.6674 87.7944 3.35425C87.7479 3.03687 87.6781 2.76603 87.585 2.54175C87.4919 2.31746 87.3734 2.1355 87.2295 1.99585C87.0898 1.8562 86.9269 1.75464 86.7407 1.69116C86.5588 1.62345 86.3535 1.5896 86.125 1.5896C85.8457 1.5896 85.5981 1.6425 85.3823 1.74829C85.1665 1.84985 84.9845 2.01278 84.8364 2.23706C84.6925 2.46134 84.5825 2.75545 84.5063 3.11938C84.4302 3.48332 84.3921 3.92554 84.3921 4.44604V6.24243C84.3921 6.65715 84.4154 7.02319 84.4619 7.34058C84.5127 7.65796 84.5868 7.93302 84.6841 8.16577C84.7814 8.39429 84.8999 8.5826 85.0396 8.73071C85.1792 8.87882 85.34 8.98885 85.522 9.06079C85.7082 9.1285 85.9134 9.16235 86.1377 9.16235C86.4255 9.16235 86.6772 9.10734 86.8931 8.99731C87.1089 8.88729 87.2887 8.7159 87.4326 8.48315C87.5807 8.24618 87.6908 7.9436 87.7627 7.57544C87.8346 7.20304 87.8706 6.75871 87.8706 6.24243ZM96.6177 9.0354V10.0002H90.5684V9.15601L93.5962 5.7854C93.9686 5.37069 94.2563 5.01945 94.4595 4.73169C94.6668 4.4397 94.8107 4.17944 94.8911 3.95093C94.9757 3.71818 95.0181 3.4812 95.0181 3.23999C95.0181 2.9353 94.9546 2.66024 94.8276 2.41479C94.7049 2.16512 94.5229 1.96623 94.2817 1.81812C94.0405 1.67 93.7485 1.59595 93.4058 1.59595C92.9953 1.59595 92.6525 1.67635 92.3774 1.83716C92.1066 1.99373 91.9035 2.21379 91.7681 2.49731C91.6326 2.78084 91.5649 3.10669 91.5649 3.47485H90.3906C90.3906 2.95435 90.5049 2.47827 90.7334 2.04663C90.9619 1.61499 91.3005 1.27222 91.749 1.01831C92.1976 0.760173 92.7498 0.631104 93.4058 0.631104C93.9897 0.631104 94.4891 0.734782 94.9038 0.942139C95.3185 1.14526 95.6359 1.43302 95.856 1.80542C96.0802 2.17358 96.1924 2.60522 96.1924 3.10034C96.1924 3.37118 96.1458 3.64624 96.0527 3.92554C95.9639 4.2006 95.839 4.47567 95.6782 4.75073C95.5216 5.0258 95.3376 5.29663 95.126 5.56323C94.9186 5.82983 94.6965 6.0922 94.4595 6.35034L91.9839 9.0354H96.6177ZM99.5884 4.80151H100.426C100.837 4.80151 101.175 4.73381 101.442 4.59839C101.713 4.45874 101.914 4.27043 102.045 4.03345C102.18 3.79224 102.248 3.5214 102.248 3.22095C102.248 2.86548 102.189 2.56714 102.07 2.32593C101.952 2.08472 101.774 1.90275 101.537 1.78003C101.3 1.65731 101 1.59595 100.636 1.59595C100.306 1.59595 100.014 1.66154 99.7598 1.79272C99.5101 1.91968 99.3133 2.10164 99.1694 2.33862C99.0298 2.5756 98.96 2.8549 98.96 3.17651H97.7856C97.7856 2.70679 97.9041 2.27938 98.1411 1.89429C98.3781 1.5092 98.7103 1.20239 99.1377 0.973877C99.5693 0.745361 100.069 0.631104 100.636 0.631104C101.194 0.631104 101.683 0.73055 102.102 0.929443C102.521 1.1241 102.847 1.4161 103.08 1.80542C103.312 2.19051 103.429 2.67082 103.429 3.24634C103.429 3.47909 103.374 3.72876 103.264 3.99536C103.158 4.25773 102.991 4.50317 102.762 4.73169C102.538 4.96021 102.246 5.14852 101.886 5.29663C101.527 5.44051 101.095 5.51245 100.591 5.51245H99.5884V4.80151ZM99.5884 5.76636V5.06177H100.591C101.18 5.06177 101.666 5.13159 102.051 5.27124C102.436 5.41089 102.739 5.59709 102.959 5.82983C103.183 6.06258 103.34 6.3186 103.429 6.5979C103.522 6.87297 103.568 7.14803 103.568 7.4231C103.568 7.85474 103.494 8.23771 103.346 8.57202C103.202 8.90633 102.997 9.18986 102.73 9.42261C102.468 9.65535 102.159 9.83097 101.804 9.94946C101.448 10.068 101.061 10.1272 100.642 10.1272C100.24 10.1272 99.8613 10.0701 99.5059 9.95581C99.1546 9.84155 98.8436 9.67651 98.5728 9.46069C98.3019 9.24064 98.0903 8.97192 97.938 8.65454C97.7856 8.33293 97.7095 7.96688 97.7095 7.5564H98.8838C98.8838 7.87801 98.9536 8.15942 99.0933 8.40063C99.2371 8.64185 99.4403 8.83016 99.7026 8.96558C99.9692 9.09676 100.282 9.16235 100.642 9.16235C101.002 9.16235 101.311 9.10099 101.569 8.97827C101.831 8.85132 102.032 8.66089 102.172 8.40698C102.316 8.15308 102.388 7.83358 102.388 7.44849C102.388 7.0634 102.307 6.74813 102.146 6.50269C101.986 6.25301 101.757 6.06893 101.461 5.95044C101.169 5.82772 100.824 5.76636 100.426 5.76636H99.5884Z" fill="#333333"/>
<path d="M66.9741 5.84253H65.5903L65.5776 5.03003H66.8662C67.0439 5.0258 67.209 4.99406 67.3613 4.93481C67.5179 4.87557 67.6427 4.79093 67.7358 4.68091C67.8332 4.56665 67.8818 4.427 67.8818 4.26196C67.8818 4.05037 67.8459 3.88322 67.7739 3.7605C67.702 3.63778 67.5814 3.54891 67.4121 3.4939C67.2471 3.43888 67.0207 3.41138 66.7329 3.41138H65.8696V7.98804H64.9746V2.60522H66.7329C67.1519 2.60522 67.5137 2.66447 67.8184 2.78296C68.123 2.90145 68.3579 3.0813 68.5229 3.32251C68.688 3.55949 68.7705 3.85994 68.7705 4.22388C68.7705 4.45239 68.7176 4.65763 68.6118 4.8396C68.506 5.02157 68.3516 5.17814 68.1484 5.30933C67.9453 5.44051 67.6978 5.54631 67.4058 5.62671C67.3931 5.62671 67.3783 5.64152 67.3613 5.67114C67.3486 5.69653 67.3359 5.70923 67.3232 5.70923C67.2513 5.75155 67.2048 5.78328 67.1836 5.80444C67.1667 5.82137 67.1476 5.83195 67.1265 5.83618C67.1095 5.84041 67.0588 5.84253 66.9741 5.84253ZM66.9106 5.84253L67.0376 5.27124C67.6935 5.27124 68.14 5.41089 68.377 5.69019C68.6182 5.96525 68.7388 6.31437 68.7388 6.73755V7.08032C68.7388 7.2369 68.7472 7.38713 68.7642 7.53101C68.7811 7.67065 68.8086 7.78914 68.8467 7.88647V7.98804H67.9263C67.884 7.87801 67.8586 7.72144 67.8501 7.51831C67.8459 7.31519 67.8438 7.16707 67.8438 7.07397V6.7439C67.8438 6.43498 67.7718 6.20858 67.6279 6.0647C67.4883 5.91659 67.2492 5.84253 66.9106 5.84253ZM63.0322 5.3728C63.0322 5.93563 63.1296 6.46037 63.3242 6.94702C63.5189 7.43368 63.7897 7.85897 64.1367 8.2229C64.4837 8.58683 64.8857 8.87036 65.3428 9.07349C65.7998 9.27661 66.2886 9.37817 66.8091 9.37817C67.3296 9.37817 67.8162 9.27661 68.269 9.07349C68.7261 8.87036 69.126 8.58683 69.4688 8.2229C69.8158 7.85897 70.0866 7.43368 70.2812 6.94702C70.4759 6.46037 70.5732 5.93563 70.5732 5.3728C70.5732 4.80575 70.4759 4.28101 70.2812 3.79858C70.0866 3.31616 69.8158 2.8951 69.4688 2.5354C69.126 2.17147 68.7261 1.89006 68.269 1.69116C67.8162 1.48804 67.3296 1.38647 66.8091 1.38647C66.2886 1.38647 65.7998 1.48804 65.3428 1.69116C64.8857 1.89006 64.4837 2.17147 64.1367 2.5354C63.7897 2.8951 63.5189 3.31616 63.3242 3.79858C63.1296 4.28101 63.0322 4.80575 63.0322 5.3728ZM62.3022 5.3728C62.3022 4.69995 62.4186 4.07576 62.6514 3.50024C62.8841 2.92472 63.2078 2.42326 63.6226 1.99585C64.0373 1.56421 64.5155 1.2299 65.0571 0.99292C65.603 0.751709 66.187 0.631104 66.8091 0.631104C67.4312 0.631104 68.013 0.751709 68.5547 0.99292C69.1006 1.2299 69.5788 1.56421 69.9893 1.99585C70.404 2.42326 70.7277 2.92472 70.9604 3.50024C71.1932 4.07576 71.3096 4.69995 71.3096 5.3728C71.3096 6.04565 71.1932 6.66984 70.9604 7.24536C70.7277 7.82088 70.404 8.32658 69.9893 8.76245C69.5788 9.19409 69.1006 9.53052 68.5547 9.77173C68.013 10.0129 67.4312 10.1335 66.8091 10.1335C66.187 10.1335 65.603 10.0129 65.0571 9.77173C64.5155 9.53052 64.0373 9.19409 63.6226 8.76245C63.2078 8.32658 62.8841 7.82088 62.6514 7.24536C62.4186 6.66984 62.3022 6.04565 62.3022 5.3728Z" fill="#3F2AFF"/>
</svg>
